<svg preserveAspectRatio="none" width="100%" height="100%" overflow="visible" style="display: block;" viewBox="0 0 133 13" fill="none" xmlns="http://www.w3.org/2000/svg">
<g id="Levels">
<path id="Cellular Connection" fill-rule="evenodd" clip-rule="evenodd" d="M41.8651 1.53302C41.8651 0.899975 41.3876 0.386792 40.7985 0.386792H39.7318C39.1427 0.386792 38.6651 0.899975 38.6651 1.53302V11.467C38.6651 12.1 39.1427 12.6132 39.7318 12.6132H40.7985C41.3876 12.6132 41.8651 12.1 41.8651 11.467V1.53302ZM34.431 2.83207H35.4977C36.0868 2.83207 36.5644 3.35757 36.5644 4.00581V11.4395C36.5644 12.0877 36.0868 12.6132 35.4977 12.6132H34.431C33.8419 12.6132 33.3644 12.0877 33.3644 11.4395V4.00581C33.3644 3.35757 33.8419 2.83207 34.431 2.83207ZM30.0993 5.48112H29.0326C28.4435 5.48112 27.9659 6.01331 27.9659 6.6698V11.4245C27.9659 12.081 28.4435 12.6132 29.0326 12.6132H30.0993C30.6884 12.6132 31.1659 12.081 31.1659 11.4245V6.6698C31.1659 6.01331 30.6884 5.48112 30.0993 5.48112ZM24.7985 7.92642H23.7318C23.1427 7.92642 22.6651 8.451 22.6651 9.09811V11.4415C22.6651 12.0886 23.1427 12.6132 23.7318 12.6132H24.7985C25.3876 12.6132 25.8651 12.0886 25.8651 11.4415V9.09811C25.8651 8.451 25.3876 7.92642 24.7985 7.92642Z" fill="var(--fill-0, black)"/>
<path id="Wifi" fill-rule="evenodd" clip-rule="evenodd" d="M57.4365 2.80213C59.9236 2.80223 62.3156 3.72432 64.1181 5.3778C64.2538 5.50545 64.4708 5.50384 64.6045 5.37419L65.9019 4.11072C65.9696 4.04496 66.0074 3.95588 66.0068 3.8632C66.0063 3.77052 65.9674 3.68188 65.899 3.61688C61.1679 -0.757832 53.7042 -0.757832 48.9732 3.61688C48.9047 3.68183 48.8658 3.77045 48.8652 3.86313C48.8645 3.95581 48.9022 4.04491 48.9698 4.11072L50.2677 5.37419C50.4013 5.50404 50.6184 5.50565 50.7541 5.3778C52.5568 3.72421 54.9491 2.80212 57.4365 2.80213ZM57.4331 7.0224C58.7904 7.02232 60.0993 7.53406 61.1054 8.45819C61.2415 8.58934 61.4559 8.5865 61.5885 8.45178L62.8758 7.13247C62.9436 7.06327 62.9812 6.96939 62.9802 6.87184C62.9793 6.77429 62.9398 6.68121 62.8706 6.61342C59.8068 3.72257 55.062 3.72257 51.9982 6.61342C51.929 6.68121 51.8895 6.77434 51.8886 6.87192C51.8877 6.9695 51.9254 7.06337 51.9934 7.13247L53.2803 8.45178C53.4129 8.5865 53.6273 8.58934 53.7634 8.45819C54.7688 7.53467 56.0767 7.02297 57.4331 7.0224ZM59.9575 9.81596C59.9594 9.92131 59.9224 10.0229 59.8551 10.0967L57.6784 12.5514C57.6146 12.6236 57.5276 12.6642 57.4369 12.6642C57.3461 12.6642 57.2591 12.6236 57.1953 12.5514L55.0183 10.0967C54.951 10.0228 54.914 9.92122 54.916 9.81587C54.918 9.71052 54.9588 9.61076 55.0288 9.54014C56.4189 8.22625 58.4548 8.22625 59.8449 9.54014C59.9149 9.61081 59.9556 9.71061 59.9575 9.81596Z" fill="var(--fill-0, black)"/>
<g id="Battery">
<rect id="Border" opacity="0.35" x="73.5068" y="0.5" width="24" height="12" rx="3.8" stroke="var(--stroke-0, black)"/>
<path id="Cap" opacity="0.4" d="M99.0068 4.78113V8.8566C99.8116 8.51143 100.335 7.70847 100.335 6.81886C100.335 5.92926 99.8116 5.1263 99.0068 4.78113" fill="var(--fill-0, black)"/>
<rect id="Capacity" x="75.0068" y="2" width="21" height="9" rx="2.5" fill="var(--fill-0, black)"/>
</g>
</g>
</svg>
