<svg preserveAspectRatio="none" width="100%" height="100%" overflow="visible" style="display: block;" viewBox="0 0 52 52" fill="none" xmlns="http://www.w3.org/2000/svg">
<g id="Group 15">
<path id="Vector" opacity="0.85" d="M25.9812 52C40.2963 52 51.901 40.3594 51.901 26C51.901 11.6406 40.2963 0 25.9812 0C11.666 0 0.0612887 11.6406 0.0612887 26C0.0612887 40.3594 11.666 52 25.9812 52Z" fill="var(--fill-0, #9A2226)"/>
<path id="Vector_2" d="M26 49.723C40.3594 49.723 52 38.5996 52 24.8781C52 11.1567 40.3594 0.0332031 26 0.0332031C11.6406 0.0332031 0 11.1567 0 24.8781C0 38.5996 11.6406 49.723 26 49.723Z" fill="var(--fill-0, #D62F39)"/>
<path id="Vector_3" d="M16.495 23.7318C17.8876 23.7318 19.0165 21.75 19.0165 19.3054C19.0165 16.8607 17.8876 14.8789 16.495 14.8789C15.1023 14.8789 13.9734 16.8607 13.9734 19.3054C13.9734 21.75 15.1023 23.7318 16.495 23.7318Z" fill="var(--fill-0, #231F20)"/>
<path id="Vector_4" d="M35.9244 23.7318C37.317 23.7318 38.446 21.75 38.446 19.3054C38.446 16.8607 37.317 14.8789 35.9244 14.8789C34.5318 14.8789 33.4028 16.8607 33.4028 19.3054C33.4028 21.75 34.5318 23.7318 35.9244 23.7318Z" fill="var(--fill-0, #231F20)"/>
<path id="Vector_5" d="M34.1768 36.6859C32.4361 34.0434 29.5161 30.4882 25.9562 30.4035C22.398 30.4768 19.6463 34.2434 17.8988 36.8843C17.1776 37.9433 15.7159 36.7804 16.3792 35.6758C20.0635 29.8271 25.688 25.0666 32.1036 30.9545C33.621 32.3523 34.8212 33.9766 35.9192 35.6644C36.5961 36.7934 34.9235 37.7791 34.1751 36.6859H34.1768Z" fill="var(--fill-0, #231F20)"/>
<path id="Vector_6" d="M11.6617 14.0134C12.9489 13.8326 14.2514 13.5801 15.4483 13.1141C16.5531 12.684 17.6494 12.0242 18.1046 10.9669C18.4762 10.2142 19.6424 10.6883 19.327 11.4687C18.7252 12.8779 17.3493 13.7625 15.9615 14.305C14.6368 14.8248 13.2541 15.1017 11.8543 15.3037C11.4827 15.3575 11.1349 15.1131 11.0769 14.758C11.0189 14.3979 11.2832 14.0623 11.66 14.0134H11.6617Z" fill="var(--fill-0, #231F20)"/>
<path id="Vector_7" d="M34.9235 10.932C35.7828 11.8166 36.7102 12.672 37.7588 13.3285C38.7186 13.9313 39.8626 14.3989 40.9862 14.1806C41.8574 14.0209 42.1302 15.2265 41.2658 15.4236C39.7501 15.7332 38.2464 15.1711 37.0239 14.407C35.8561 13.6804 34.8604 12.773 33.921 11.8134C33.6635 11.5511 33.6772 11.1389 33.9517 10.8929C34.2296 10.6436 34.6677 10.6616 34.9235 10.9304V10.932Z" fill="var(--fill-0, #231F20)"/>
</g>
</svg>
