<svg preserveAspectRatio="none" width="100%" height="100%" overflow="visible" style="display: block;" viewBox="0 0 52.3049 11.2257" fill="none" xmlns="http://www.w3.org/2000/svg">
<g id="Stars">
<path id="Vector" d="M36.7508 1.06538L38.1808 4.10539L41.3808 4.59538L39.0608 6.95536L39.6108 10.2954L36.7508 8.72538L33.8808 10.2954L34.4308 6.95536L32.1208 4.59538L35.3208 4.10539L36.7508 1.06538Z" fill="var(--fill-0, white)" stroke="var(--stroke-0, #00609A)" stroke-width="0.5" stroke-miterlimit="10"/>
<path id="Vector_2" d="M26.6708 0.825388L28.1208 4.02537L31.3508 4.53538L29.0108 7.02537L29.5608 10.5354L26.6708 8.87538L23.7808 10.5354L24.3308 7.02537L21.9908 4.53538L25.2208 4.02537L26.6708 0.825388Z" fill="var(--fill-0, white)" stroke="var(--stroke-0, #00609A)" stroke-width="0.5" stroke-miterlimit="10"/>
<path id="Vector_3" d="M47.1908 0.825388L48.6108 3.89537L51.7908 4.38539L49.4908 6.77537L50.0308 10.1454L47.1908 8.55537L44.3508 10.1454L44.8908 6.77537L42.5908 4.38539L45.7708 3.89537L47.1908 0.825388Z" fill="var(--fill-0, white)" stroke="var(--stroke-0, #00609A)" stroke-width="0.5" stroke-miterlimit="10"/>
<path id="Vector_4" d="M5.42079 0.825388L6.9308 4.03538L10.3208 4.54539L7.87081 7.04539L8.45079 10.5654L5.42079 8.90537L2.39079 10.5654L2.97081 7.04539L0.520799 4.54539L3.9008 4.03538L5.42079 0.825388Z" fill="var(--fill-0, white)" stroke="var(--stroke-0, #00609A)" stroke-width="0.5" stroke-miterlimit="10"/>
<path id="Vector_5" d="M15.9508 0.615366L17.4408 3.95536L20.7508 4.48536L18.3508 7.08537L18.9208 10.7454L15.9508 9.01539L12.9908 10.7454L13.5508 7.08537L11.1508 4.48536L14.4708 3.95536L15.9508 0.615366Z" fill="var(--fill-0, white)" stroke="var(--stroke-0, #00609A)" stroke-width="0.5" stroke-miterlimit="10"/>
</g>
</svg>
