<svg preserveAspectRatio="none" width="100%" height="100%" overflow="visible" style="display: block;" viewBox="0 0 50.2541 58.0053" fill="none" xmlns="http://www.w3.org/2000/svg">
<g id="Rocket">
<path id="Vector" d="M20.7815 37.1034C21.5615 36.5534 22.3815 35.9334 23.2615 35.2234L16.2615 29.8934C15.7915 30.9034 15.3815 31.8434 15.0315 32.7234L20.7815 37.1034Z" fill="var(--fill-0, white)" stroke="var(--stroke-0, #00609A)" stroke-miterlimit="10"/>
<path id="Vector_2" d="M42.8415 10.5534L34.8515 4.4734C34.7915 4.4234 34.7415 4.38341 34.7115 4.33341C31.4515 6.23341 26.9315 9.4634 23.1415 14.7234C19.8915 19.2234 17.2215 25.1534 16.3815 29.5834L23.5615 35.0534C27.3015 33.2934 31.7915 29.4634 35.7515 24.3234C39.4715 19.4734 41.9515 14.4934 42.8415 10.5534Z" fill="var(--fill-0, white)" stroke="var(--stroke-0, #00609A)" stroke-miterlimit="10"/>
<path id="Vector_3" d="M43.4615 0.753397C42.7715 0.293397 41.8415 0.543393 40.9715 0.843393C39.5815 1.32339 37.4315 2.23341 34.8415 4.11341C37.5415 6.17341 40.2415 8.2234 42.9415 10.2834C44.3915 6.8034 44.4415 4.31341 44.3515 3.01341C44.2815 1.97341 44.0815 1.1634 43.4615 0.753397Z" fill="var(--fill-0, white)" stroke="var(--stroke-0, #00609A)" stroke-miterlimit="10"/>
<path id="Vector_4" d="M29.2315 38.4634C29.8815 37.9234 31.7215 36.2334 32.4015 33.4234C32.9115 31.2934 32.5015 29.5634 32.2515 28.7434C30.8415 30.0434 29.4415 31.3334 28.0315 32.6334C28.4115 32.9734 28.9715 33.5734 29.3315 34.4734C30.0515 36.3134 29.4115 38.0134 29.2315 38.4634Z" fill="var(--fill-0, white)" stroke="var(--stroke-0, #00609A)" stroke-miterlimit="10"/>
<path id="Vector_5" d="M33.6715 16.5034C35.0633 16.5034 36.1915 15.3841 36.1915 14.0034C36.1915 12.6227 35.0633 11.5034 33.6715 11.5034C32.2797 11.5034 31.1515 12.6227 31.1515 14.0034C31.1515 15.3841 32.2797 16.5034 33.6715 16.5034Z" fill="var(--fill-0, #00609A)" stroke="var(--stroke-0, #00609A)" stroke-miterlimit="10"/>
<path id="Vector_6" d="M19.6115 19.9634C18.9015 21.5534 18.1915 23.1434 17.4715 24.7434C16.8915 24.6234 16.0015 24.5234 14.8915 24.6434C13.3515 24.8134 12.1515 25.3334 11.4915 25.6734C11.6415 25.2134 12.3415 23.1634 14.7115 21.5734C16.8715 20.1134 19.0115 19.9834 19.6115 19.9634Z" fill="var(--fill-0, white)" stroke="var(--stroke-0, #00609A)" stroke-miterlimit="10"/>
<path id="Vector_7" d="M14.9915 33.5034C13.9115 33.4134 13.0115 34.3634 12.6815 34.7034C12.6115 34.7734 12.4115 34.9934 12.1715 35.3234C12.0915 35.4334 12.0215 35.5434 11.9615 35.6434C11.7515 35.9834 11.6315 36.2534 11.5315 36.4734C11.4315 36.7034 11.3115 36.9934 11.1915 37.3534C11.1915 37.3934 11.2015 37.4134 11.2115 37.4234C11.2815 37.5034 11.5715 37.3934 11.6015 37.3734C11.7015 37.3334 11.8515 37.2834 12.0215 37.2134C12.2615 37.1234 12.4315 37.0434 12.5215 36.9934C12.8215 36.8534 13.1315 36.7234 13.4315 36.5934C13.7915 36.4334 14.4315 36.2034 15.6815 35.8434C15.0415 36.7234 14.2315 37.8334 13.3015 39.1334C5.78151 49.5434 0.2115 57.2634 0.5115 57.5034C0.6415 57.6134 4.52152 53.2534 17.8115 37.5534C17.6415 38.8134 17.4415 39.8334 17.2815 40.5634C17.1315 41.2534 17.0115 41.8034 17.1915 41.9134C17.3115 41.9834 17.4815 41.8334 18.5415 40.8934C19.3015 40.2234 19.3915 40.1434 19.5315 39.9734C19.9315 39.5234 20.2015 39.0934 20.3715 38.7734C20.4615 38.5934 20.5915 38.2534 20.4615 37.8234C20.4615 37.8234 20.4115 37.6734 20.3315 37.5134C19.8615 36.6834 17.7415 35.2834 17.4315 35.0734C15.5315 33.8534 15.5815 33.5534 14.9915 33.5034Z" fill="var(--fill-0, white)" stroke="var(--stroke-0, #00609A)" stroke-miterlimit="10"/>
<path id="Vector_8" d="M2.00152 36.3334L8.31152 28.6334" stroke="var(--stroke-0, white)" stroke-miterlimit="10"/>
<path id="Vector_9" d="M49.8815 30.0834L31.7715 50.3234" stroke="var(--stroke-0, white)" stroke-miterlimit="10"/>
<path id="Vector_10" d="M5.91153 34.7434L12.2315 27.0534" stroke="var(--stroke-0, white)" stroke-miterlimit="10"/>
<path id="Vector_11" d="M17.5415 47.8134L23.6815 40.9934" stroke="var(--stroke-0, white)" stroke-miterlimit="10"/>
<path id="Vector_12" d="M22.3015 45.7734L28.4515 38.9534" stroke="var(--stroke-0, white)" stroke-miterlimit="10"/>
</g>
</svg>
