<svg preserveAspectRatio="none" width="100%" height="100%" overflow="visible" style="display: block;" viewBox="0 0 157.72 167" fill="none" xmlns="http://www.w3.org/2000/svg">
<g id="Group 11">
<g id="Ellipse 11" filter="url(#filter0_dd_3681_9249)">
<path d="M148.704 85C151.552 85 153.875 82.6891 153.712 79.8464C152.568 59.9795 144.843 41.176 131.893 27.0172C117.828 11.6393 98.7512 3 78.86 3C58.9688 3 39.8922 11.6393 25.827 27.0172C12.8769 41.176 5.1517 59.9795 4.00814 79.8464C3.84452 82.6891 6.1683 85 9.01572 85V85C11.8631 85 14.1535 82.689 14.3432 79.8479C15.4698 62.9737 22.1024 47.0331 33.1183 34.989C45.2497 21.7253 61.7035 14.2738 78.86 14.2738C96.0165 14.2738 112.47 21.7253 124.602 34.9891C135.618 47.0331 142.25 62.9737 143.377 79.8479C143.567 82.689 145.857 85 148.704 85V85Z" fill="var(--fill-0, #D9D9D9)"/>
</g>
<g id="Group 10">
<path id="Ellipse 12" d="M93.0221 10.0196C93.5833 7.0486 91.6926 4.14184 88.7003 3.70884C79.3081 2.34979 69.7485 2.9464 60.5302 5.48665C49.5617 8.50916 39.3607 14.2051 30.6906 22.148C22.0205 30.0909 15.106 40.0751 10.4646 51.3532C6.47256 61.0535 4.25104 71.4949 3.90716 82.0925C3.81448 84.9486 6.21183 87.2031 9.0681 87.1164V87.1164C11.9044 87.0304 14.1201 84.6666 14.2364 81.8314C14.602 72.9178 16.5078 64.1441 19.868 55.9791C23.8713 46.2516 29.8352 37.6401 37.3132 30.7892C44.7913 23.9384 53.5898 19.0256 63.0502 16.4186C70.631 14.3296 78.4794 13.7646 86.2151 14.7325C89.3692 15.1271 92.4322 13.1431 93.0221 10.0196V10.0196Z" fill="url(#paint0_linear_3681_9249)"/>
</g>
</g>
<defs>
<filter id="filter0_dd_3681_9249" x="7.45058e-08" y="0" width="157.72" height="90" filterUnits="userSpaceOnUse" color-interpolation-filters="sRGB">
<feFlood flood-opacity="0" result="BackgroundImageFix"/>
<feColorMatrix in="SourceAlpha" type="matrix" values="0 0 0 0 0 0 0 0 0 0 0 0 0 0 0 0 0 0 127 0" result="hardAlpha"/>
<feMorphology radius="1" operator="dilate" in="SourceAlpha" result="effect1_dropShadow_3681_9249"/>
<feOffset dy="1"/>
<feGaussianBlur stdDeviation="1.5"/>
<feColorMatrix type="matrix" values="0 0 0 0 0 0 0 0 0 0 0 0 0 0 0 0 0 0 0.15 0"/>
<feBlend mode="normal" in2="BackgroundImageFix" result="effect1_dropShadow_3681_9249"/>
<feColorMatrix in="SourceAlpha" type="matrix" values="0 0 0 0 0 0 0 0 0 0 0 0 0 0 0 0 0 0 127 0" result="hardAlpha"/>
<feOffset dy="1"/>
<feGaussianBlur stdDeviation="1"/>
<feColorMatrix type="matrix" values="0 0 0 0 0 0 0 0 0 0 0 0 0 0 0 0 0 0 0.3 0"/>
<feBlend mode="normal" in2="effect1_dropShadow_3681_9249" result="effect2_dropShadow_3681_9249"/>
<feBlend mode="normal" in="SourceGraphic" in2="effect2_dropShadow_3681_9249" result="shape"/>
</filter>
<linearGradient id="paint0_linear_3681_9249" x1="48.61" y1="103.25" x2="141.86" y2="28.5" gradientUnits="userSpaceOnUse">
<stop offset="1" stop-color="#858E93"/>
</linearGradient>
</defs>
</svg>
