<svg width="82" height="159" viewBox="0 0 82 159" fill="none" xmlns="http://www.w3.org/2000/svg">
<path d="M73.1051 48.4576C72.1688 24.0588 53.4428 3.57459 53.0683 3.81533C52.9796 3.86767 53.7188 5.09232 54.5664 7.10201C60.7361 21.6408 56.2714 38.137 54.5565 45.778C52.8317 53.4504 49.3921 59.6574 43.6067 72.3017C40.2262 79.6811 35.1208 89.8865 27.7191 101.704L27.66 101.662C19.7162 113.061 11.7823 124.47 3.83849 135.869C1.00002 140.066 0.418522 145.477 2.38968 149.999C4.76493 155.442 10.4616 158.697 16.4244 157.86C26.7631 144.912 36.5795 131.399 45.8538 117.31C45.9524 117.164 46.0509 117.017 46.1396 116.871L46.8 115.866H46.7901C51.4421 108.665 57.1683 98.7312 62.451 86.2963C69.7344 69.2035 73.5585 60.2122 73.1051 48.4576Z" fill="url(#paint0_linear_2914_6705)"/>
<path d="M38.4621 80.8751C35.9686 85.7318 33.1498 90.777 29.9664 95.9372C28.5373 98.2505 27.1082 100.47 25.6693 102.615C20.8301 97.12 14.2365 88.5265 8.68771 76.6463C4.10476 66.8282 -0.695017 58.4754 0.0835918 48.0292C1.65067 27.0008 19.3221 3.40786 19.6572 3.48113C19.7361 3.50206 19.0265 4.77905 18.1887 6.77827C12.7187 19.7784 15.7445 33.6055 17.075 39.6136C19.5685 50.8972 24.1318 58.8627 26.6746 63.3112C28.1924 65.9699 31.4941 71.35 35.8503 77.3686C36.9246 78.834 37.8314 80.0377 38.4621 80.8751Z" fill="url(#paint1_linear_2914_6705)"/>
<path d="M43.1729 122.942C47.0659 116.746 50.9688 110.549 54.8618 104.353C63.328 115.249 71.804 126.135 80.2701 137.031C80.9995 138.633 82.3694 142.202 81.9062 146.766C81.7091 148.692 81.374 152.01 78.979 154.773C75.4408 158.855 70.1581 158.572 69.2908 158.51C60.5881 146.65 51.8854 134.802 43.1729 122.942Z" fill="url(#paint2_linear_2914_6705)"/>
<path d="M55.7395 12.9008C56.528 17.0981 56.5083 16.5852 56.6955 17.9146C56.9222 19.5788 57.0405 21.0547 57.0996 22.2898C55.5424 21.128 53.4431 19.7463 50.8313 18.4903C47.983 17.1295 45.657 16.4596 44.8488 16.2398C44.0407 16.02 40.3842 15.0675 35.3577 15.0884C33.2091 15.0989 30.1341 15.1303 26.3495 16.177C21.9144 17.4121 18.455 19.4742 16.0107 21.3164C16.0502 20.4162 16.1192 19.1288 16.2571 17.5901C16.405 15.8211 16.6218 14.0103 16.7401 13.2253C17.1639 10.5038 18.5733 7.15437 20.5444 4.87254C24.0235 0.863628 29.0204 0.465871 34.2736 0.0576534C34.7269 0.026252 39.2606 -0.298223 44.2871 1.02063C46.5342 1.60679 48.1013 2.31855 49.4121 3.12452C50.9989 4.0875 51.9253 5.00861 52.1619 5.24935C52.6941 5.78318 53.7585 6.88222 54.5765 8.58836C54.9708 9.41527 55.3059 10.5771 55.7395 12.9008Z" fill="url(#paint3_linear_2914_6705)"/>
<path d="M48.9291 99.0671C47.7563 98.9206 46.5342 98.8368 45.3712 98.7217C43.0748 98.4914 41.0248 97.8215 38.8269 97.0679C38.4524 96.9318 38.2947 96.8899 38.137 97.4866C37.0923 101.59 35.269 105.065 32.7163 108.425C31.9969 109.377 31.1887 110.497 30.5678 111.513C30.3017 111.942 30.0158 112.434 29.6906 112.664C27.542 114.182 25.7187 115.752 24.0728 117.803C23.0379 119.101 22.0819 120.169 21.2048 121.645C19.9038 123.853 19.1252 126.449 18.4156 128.961C18.5535 129.139 18.7309 129.317 18.8689 129.474C18.9379 129.558 18.8886 129.652 18.8788 129.704C18.1889 132.677 18.179 135.2 19.0365 138.12C19.2336 138.779 19.8742 139.46 19.2336 140.056C18.662 140.59 18.0903 140.161 17.6172 139.659C16.3261 138.287 15.242 136.937 14.4634 135.126C13.6453 133.221 12.847 131.17 12.098 129.202C11.7629 128.323 11.5559 127.339 11.4081 126.418C11.3292 125.905 11.5362 125.675 11.9699 125.497C13.0638 125.026 14.2071 124.753 15.3011 124.199C15.5672 124.063 15.7742 123.749 15.8925 123.424C17.085 120.357 18.179 117.238 19.3321 114.129C19.7067 113.124 20.2487 112.151 20.8992 111.324C21.6187 110.413 22.555 109.827 23.4322 109.147C24.8021 108.079 25.7581 106.907 26.5565 105.306C26.724 104.96 26.8423 104.573 26.9408 104.175C27.7293 100.794 28.5473 97.497 29.2865 94.0638C29.5231 92.9438 29.4048 91.782 29.1978 90.5783C28.9317 89.1129 28.9908 87.5323 29.4541 86.0879C29.7892 85.0516 30.4199 84.1724 30.9127 83.2827C32.7952 79.8494 33.5442 76.6884 33.9582 72.7213C34.2736 69.644 34.3623 66.2527 34.3524 63.102C34.3228 63.0811 34.313 63.0602 34.2834 63.0392C32.7952 63.1335 31.3365 63.0706 29.8582 63.0183C29.5526 63.0078 29.1485 63.2276 28.9613 63.4893C28.0151 64.8501 26.9901 66.0014 25.9651 67.3308C24.6937 68.9741 23.6096 70.7535 22.9591 72.8051C22.6733 73.6948 22.9689 74.438 23.2843 75.3067C23.8757 76.9187 24.1122 78.5725 24.1418 80.31C23.4913 79.5564 23.1661 78.6562 22.7718 77.7456C22.6634 78.405 22.5353 79.2424 22.4762 79.8809C22.417 80.5193 22.2002 81.0532 21.5891 80.6659C19.5785 79.4308 18.4944 77.777 19.2237 75.2753C20.2093 71.863 21.8749 68.4508 23.2646 65.3002C24.1713 63.2277 25.1077 61.6681 25.9158 59.6374C26.1228 59.1141 26.5663 58.7896 27.0197 58.5698C28.3798 57.9208 29.7103 57.3451 31.0803 56.7485C32.1348 56.2879 33.2584 55.953 34.3918 56.0577C34.7663 56.0995 35.1014 55.9844 35.4661 55.7855C36.639 55.147 37.6541 55.1366 39.0142 54.9796C40.3743 54.8226 41.0445 53.8596 41.2318 52.3523C41.3008 51.7766 41.2318 51.0544 41.3697 50.395C42.2962 45.8313 42.6707 44.1042 47.4311 44.5543C49.1263 44.7113 49.5304 45.8313 50.6145 46.9408C51.127 47.4642 50.989 48.2701 50.6539 48.961C50.5849 49.097 50.5751 49.4948 50.5258 49.7355C50.3484 50.5938 50.0429 51.494 49.9542 52.4046C49.9049 52.9594 50.033 53.4932 50.1217 54.0585C50.171 54.3829 50.2498 54.7388 50.309 55.0738C49.3628 55.482 48.9981 56.3926 48.7616 57.3033C48.5251 58.2139 48.2984 58.3186 47.5099 58.3814C47.165 58.4128 46.8102 58.0674 46.5046 58.0046C46.0611 57.9104 45.5782 57.9208 45.3712 58.3395C44.8094 59.5223 44.8686 59.941 45.519 61.1761C45.9527 62.003 46.6327 63.1858 47.0467 64.1906C47.2931 64.7663 47.569 65.4886 47.845 66.1166C48.4561 67.4878 49.0868 68.9218 49.7275 70.3034C51.1861 68.4822 52.3885 66.6504 53.3544 64.4523C53.4628 64.2116 53.3347 63.7824 53.2657 63.4684C52.901 61.8041 52.8025 60.1399 52.8813 58.4232C52.8912 58.2558 52.9207 58.0988 52.9306 57.9418C53.0094 57.9732 53.0982 58.0046 53.177 58.036C53.3643 58.7791 53.5417 59.5432 53.7388 60.2759C53.8768 59.9619 54.0049 59.3653 54.1527 59.0931C54.5765 58.3186 54.7638 58.0988 55.5325 58.6326C56.1436 59.0617 56.7152 59.8154 57.208 60.4748C57.4249 60.7784 57.553 61.3226 57.4741 61.689C57.2573 62.6834 56.9813 63.6777 56.6265 64.5988C56.0253 66.127 55.365 67.6134 54.7737 69.1206C53.7782 71.6537 52.8123 74.2286 51.2157 76.3534C50.3582 77.5048 49.6979 77.3583 48.5546 76.7093C47.9534 76.3639 47.4212 75.5684 46.9186 74.9927C46.5342 74.5531 46.1301 73.946 45.7753 73.4645C44.3068 77.5676 42.5032 81.5137 41.1332 85.6587C41.8428 86.0879 42.5919 86.3181 43.2916 86.7787C46.9678 89.2071 50.7722 91.468 54.0246 94.5348C55.5227 95.9374 55.8184 97.1726 55.2566 99.3183C54.6258 101.757 53.3643 104.343 52.6251 106.896C52.0042 109.032 51.2551 111.167 50.9693 113.48C50.7131 115.469 51.0679 117.573 51.5705 119.562C51.6395 119.834 51.9647 120.169 52.1619 120.389C52.2506 120.493 52.4083 120.64 52.4772 120.755C53.995 123.026 55.7888 124.764 57.9768 126.24C58.5386 126.617 59.12 126.732 59.672 127.056C59.9874 127.245 60.2929 127.538 60.3619 127.883C60.4506 128.344 60.2239 128.637 59.9677 128.909C59.7114 129.171 59.4552 129.191 59.1398 129.171C57.1982 129.055 55.4931 128.773 53.6107 128.092C52.0239 127.527 50.2991 126.826 48.7123 126.125C47.7957 125.716 46.8299 125.214 46.0414 124.586C45.4106 124.084 45.2431 123.487 45.4895 122.712C45.9133 121.373 46.544 120.137 46.9777 118.777C47.0565 118.536 47.0565 118.243 47.0467 117.939C46.9974 114.203 46.7609 110.33 46.751 106.624C46.751 104.144 47.4804 102.228 48.4758 100.061C48.6039 99.7684 48.8404 99.6114 48.9883 99.3183C48.9291 99.2869 48.9587 99.109 48.9291 99.0671Z" fill="white" stroke="black" stroke-miterlimit="10"/>
<defs>
<linearGradient id="paint0_linear_2914_6705" x1="-17.7142" y1="119.853" x2="85.8516" y2="51.5708" gradientUnits="userSpaceOnUse">
<stop stop-color="#006DA5"/>
<stop offset="0.3708" stop-color="#006CA4"/>
<stop offset="0.5044" stop-color="#0067A0"/>
<stop offset="0.5996" stop-color="#005F99"/>
<stop offset="0.6766" stop-color="#005490"/>
<stop offset="0.7418" stop-color="#004584"/>
<stop offset="0.7992" stop-color="#133376"/>
<stop offset="0.806" stop-color="#153074"/>
</linearGradient>
<linearGradient id="paint1_linear_2914_6705" x1="7.71386" y1="27.2787" x2="38.5009" y2="81.4266" gradientUnits="userSpaceOnUse">
<stop offset="4.02556e-07" stop-color="#AC0069"/>
<stop offset="0.5057" stop-color="#EC3990"/>
<stop offset="0.8139" stop-color="#EF5A9B"/>
<stop offset="1" stop-color="#F06CA2"/>
</linearGradient>
<linearGradient id="paint2_linear_2914_6705" x1="52.5434" y1="116.31" x2="72.7724" y2="143.024" gradientUnits="userSpaceOnUse">
<stop offset="3.01917e-07" stop-color="#EE478E"/>
<stop offset="0.9941" stop-color="#F179AB"/>
</linearGradient>
<linearGradient id="paint3_linear_2914_6705" x1="16.0028" y1="11.1442" x2="57.0965" y2="11.1442" gradientUnits="userSpaceOnUse">
<stop offset="4.9361e-07" stop-color="#D35D83"/>
<stop offset="0.2092" stop-color="#A14A85"/>
<stop offset="0.4094" stop-color="#7A3D86"/>
<stop offset="0.5935" stop-color="#5B3587"/>
<stop offset="0.7581" stop-color="#433088"/>
<stop offset="0.8972" stop-color="#322D89"/>
<stop offset="0.9941" stop-color="#2C2C8A"/>
</linearGradient>
</defs>
</svg>
