<svg preserveAspectRatio="none" width="100%" height="100%" overflow="visible" style="display: block;" viewBox="0 0 17.0008 21.2495" fill="none" xmlns="http://www.w3.org/2000/svg">
<g id="Tick_00000000903838439371004450000006085552051054942360_">
<path id="Vector" d="M0.337862 10.4423C0.937862 10.9923 1.52787 11.5423 2.12787 12.0923C3.65787 11.0423 5.17786 9.98228 6.70786 8.93228" stroke="var(--stroke-0, white)" stroke-miterlimit="10"/>
<path id="Vector_2" d="M0.337862 18.9623C0.937862 19.5123 1.52787 20.0623 2.12787 20.6123C3.65787 19.5623 5.17786 18.5023 6.70786 17.4523" stroke="var(--stroke-0, white)" stroke-miterlimit="10"/>
<path id="Vector_3" d="M9.83786 1.92227C10.4379 2.47227 11.0279 3.02226 11.6279 3.57226C13.1579 2.52226 14.6779 1.46226 16.2079 0.412257" stroke="var(--stroke-0, white)" stroke-miterlimit="10"/>
<path id="Vector_4" d="M9.89786 9.51226C10.4979 10.0623 11.0879 10.6123 11.6879 11.1623C13.2179 10.1123 14.7379 9.05228 16.2679 8.00228" stroke="var(--stroke-0, white)" stroke-miterlimit="10"/>
<path id="Vector_5" d="M10.3479 18.8223C10.9479 19.3723 11.5379 19.9223 12.1379 20.4723C13.6679 19.4223 15.1879 18.3623 16.7179 17.3123" stroke="var(--stroke-0, white)" stroke-miterlimit="10"/>
</g>
</svg>
