<svg preserveAspectRatio="none" width="100%" height="100%" overflow="visible" style="display: block;" viewBox="0 0 49.4167 12.1375" fill="none" xmlns="http://www.w3.org/2000/svg">
<g id="Stars">
<path id="Vector" opacity="0.69" d="M35.9455 2.03691L37.1355 4.6169L39.7855 5.0269L37.8655 7.03691L38.3155 9.87691L35.9455 8.53691L33.5755 9.87691L34.0255 7.03691L32.1055 5.0269L34.7555 4.6169L35.9455 2.03691Z" fill="var(--fill-0, white)" stroke="var(--stroke-0, #00609A)" stroke-width="0.5" stroke-miterlimit="10"/>
<path id="Vector_2" d="M27.2955 1.0869L28.7455 4.28691L31.9755 4.79689L29.6355 7.2769L30.1855 10.7969L27.2955 9.13688L24.4055 10.7969L24.9555 7.2769L22.6155 4.79689L25.8455 4.28691L27.2955 1.0869Z" fill="var(--fill-0, white)" stroke="var(--stroke-0, #00609A)" stroke-width="0.5" stroke-miterlimit="10"/>
<path id="Vector_3" opacity="0.69" d="M44.8055 1.76689L46.0655 4.5269L48.9055 4.9669L46.8555 7.1169L47.3355 10.1469L44.8055 8.7169L42.2655 10.1469L42.7555 7.1169L40.7055 4.9669L43.5355 4.5269L44.8055 1.76689Z" fill="var(--fill-0, white)" stroke="var(--stroke-0, #00609A)" stroke-width="0.5" stroke-miterlimit="10"/>
<path id="Vector_4" d="M5.48553 0.636884L7.03552 4.25691L10.4855 4.84691L7.98553 7.66688L8.57553 11.6469L5.48553 9.76689L2.39554 11.6469L2.98553 7.66688L0.485531 4.84691L3.94552 4.25691L5.48553 0.636884Z" fill="var(--fill-0, white)" stroke="var(--stroke-0, #00609A)" stroke-width="0.5" stroke-miterlimit="10"/>
<path id="Vector_5" d="M16.5755 1.07689L18.0655 4.41688L21.3755 4.94688L18.9755 7.54689L19.5455 11.2069L16.5755 9.47691L13.6155 11.2069L14.1755 7.54689L11.7755 4.94688L15.0955 4.41688L16.5755 1.07689Z" fill="var(--fill-0, white)" stroke="var(--stroke-0, #00609A)" stroke-width="0.5" stroke-miterlimit="10"/>
</g>
</svg>
