<svg preserveAspectRatio="none" width="100%" height="100%" overflow="visible" style="display: block;" viewBox="0 0 17.36 22.71" fill="none" xmlns="http://www.w3.org/2000/svg">
<g id="Small_rectangle">
<path id="Vector" d="M6.07001 6.69H1C0.45 6.69 0 6.24 0 5.69V1C0 0.45 0.45 0 1 0H6.07001C6.62001 0 7.07001 0.45 7.07001 1V5.69C7.07001 6.24 6.62001 6.69 6.07001 6.69Z" fill="var(--fill-0, white)"/>
<path id="Vector_2" d="M6.07001 14.8H1C0.45 14.8 0 14.35 0 13.8V9.11002C0 8.56002 0.45 8.11002 1 8.11002H6.07001C6.62001 8.11002 7.07001 8.56002 7.07001 9.11002V13.8C7.07001 14.35 6.62001 14.8 6.07001 14.8Z" fill="var(--fill-0, white)"/>
<path id="Vector_3" d="M6.07001 22.53H1C0.45 22.53 0 22.08 0 21.53V16.84C0 16.29 0.45 15.84 1 15.84H6.07001C6.62001 15.84 7.07001 16.29 7.07001 16.84V21.53C7.07001 22.08 6.62001 22.53 6.07001 22.53Z" fill="var(--fill-0, white)"/>
<path id="Vector_4" d="M16.36 6.88H11.29C10.74 6.88 10.29 6.43 10.29 5.88V1.19C10.29 0.640002 10.74 0.190002 11.29 0.190002H16.36C16.91 0.190002 17.36 0.640002 17.36 1.19V5.88C17.36 6.43 16.91 6.88 16.36 6.88Z" fill="var(--fill-0, white)"/>
<path id="Vector_5" d="M16.36 14.98H11.29C10.74 14.98 10.29 14.53 10.29 13.98V9.29001C10.29 8.74001 10.74 8.29001 11.29 8.29001H16.36C16.91 8.29001 17.36 8.74001 17.36 9.29001V13.98C17.36 14.53 16.91 14.98 16.36 14.98Z" fill="var(--fill-0, white)"/>
<path id="Vector_6" d="M16.36 22.71H11.29C10.74 22.71 10.29 22.26 10.29 21.71V17.02C10.29 16.47 10.74 16.02 11.29 16.02H16.36C16.91 16.02 17.36 16.47 17.36 17.02V21.71C17.36 22.26 16.91 22.71 16.36 22.71Z" fill="var(--fill-0, white)"/>
</g>
</svg>
