<svg preserveAspectRatio="none" width="100%" height="100%" overflow="visible" style="display: block;" viewBox="0 0 52.9204 61.7446" fill="none" xmlns="http://www.w3.org/2000/svg">
<g id="Trophy">
<path id="Vector" d="M12.8603 55.9801C12.8603 55.6601 12.8603 55.3901 12.8603 55.1201C12.8603 53.1001 12.8603 51.0801 12.8603 49.0601C12.8603 47.8401 13.7603 46.8701 14.9103 46.8701C15.5203 46.8701 16.1203 46.8701 16.7903 46.8701C16.7903 46.5601 16.7803 46.2701 16.7903 45.9801C16.8103 45.3701 17.1603 45.0601 17.6803 44.8501C18.3703 44.5701 19.0403 44.2101 19.6603 43.7801C21.5103 42.5201 22.5303 40.6701 22.9003 38.3801C23.0003 37.7301 23.0103 37.0601 23.0403 36.4001C23.0503 36.2901 22.9603 36.1101 22.8703 36.0601C21.5603 35.2701 21.2303 33.3201 22.2603 32.0401C21.5403 31.5301 20.8003 31.0501 20.1003 30.5101C19.6003 30.1301 19.1503 29.6701 18.6703 29.2601C18.5203 29.1301 18.3303 29.0101 18.1403 28.9701C15.4203 28.4501 12.7903 27.6201 10.3703 26.1301C8.61031 25.0501 7.02031 23.7401 5.62031 22.1601C3.55031 19.8201 1.9703 17.1701 1.0503 14.0801C0.500298 12.2301 0.140309 10.3401 0.280309 8.40012C0.410309 6.58012 1.19031 5.1401 2.78031 4.3501C3.34031 4.0701 3.96033 3.93009 4.61033 3.94009C6.07033 3.97009 7.52032 3.9501 8.98032 3.9501C9.12032 3.9501 9.25032 3.9501 9.42032 3.9501C9.42032 3.3201 9.45031 2.72012 9.41031 2.12012C9.35031 1.16012 9.9703 0.240091 11.1503 0.250091C17.4703 0.280091 23.7903 0.260101 30.1103 0.260101C34.0003 0.260101 37.8903 0.280091 41.7803 0.250091C42.8503 0.240091 43.6003 1.0501 43.5103 2.1301C43.4703 2.7201 43.5003 3.31011 43.5003 3.96011C43.6303 3.96011 43.7503 3.96011 43.8803 3.96011C45.4303 3.96011 46.9803 3.93009 48.5303 3.97009C49.6003 4.00009 50.5603 4.4101 51.3203 5.2601C52.2303 6.2901 52.6603 7.4901 52.6703 8.9201C52.6803 11.9401 51.9203 14.7501 50.5903 17.3601C47.8103 22.8101 43.5703 26.3501 38.0603 28.1301C37.0403 28.4601 35.9803 28.6701 34.9303 28.8701C34.5003 28.9601 34.2703 29.3001 33.9903 29.5601C32.9703 30.5201 31.8803 31.3601 30.6603 32.0101C31.3503 33.0301 31.5103 34.1001 30.8503 35.1901C30.6703 35.5001 30.3503 35.7201 30.1103 35.9901C30.0403 36.0701 29.9503 36.1701 29.9503 36.2701C29.9003 38.2401 30.2603 40.1001 31.2303 41.7901C32.0503 43.2301 33.3203 44.0501 34.7903 44.5501C35.0203 44.6301 35.2503 44.7101 35.4603 44.8201C35.9403 45.0601 36.0803 45.5401 36.1303 46.0501C36.1603 46.3001 36.1303 46.5601 36.1303 46.8501C36.7203 46.8501 37.2803 46.8501 37.8403 46.8501C39.0103 46.8501 39.8803 47.7801 39.8703 49.0301C39.8703 51.2101 39.8703 53.3901 39.8703 55.5701C39.8703 55.6801 39.8703 55.7901 39.8703 55.9201C40.3203 55.9501 40.7603 55.9401 41.1803 56.0001C41.9603 56.1101 42.4703 56.7301 42.4903 57.5801C42.5003 58.3301 42.5003 59.0801 42.4803 59.8301C42.4603 60.8301 41.8203 61.4901 40.8703 61.4901C38.9003 61.5001 36.9203 61.4901 34.9503 61.4901C27.3103 61.4901 19.6703 61.4901 12.0303 61.4901C11.1203 61.4901 10.6103 61.1501 10.3703 60.3801C10.3303 60.2601 10.3103 60.1201 10.3103 59.9901C10.3003 59.1501 10.3003 58.3101 10.3103 57.4801C10.3203 56.6201 10.9103 55.9701 11.7103 55.9501C12.0903 55.9701 12.4503 55.9801 12.8603 55.9801ZM12.3003 5.80011C12.3903 7.19011 12.4803 8.56011 12.5803 9.93011C12.7503 12.1301 13.0603 14.3201 13.5603 16.4601C14.7203 21.4201 16.9503 25.6901 20.6303 29.0201C22.9003 31.0801 25.5003 31.6201 28.3503 31.1101C30.1703 30.7801 31.6703 29.7101 32.9903 28.3801C35.8903 25.4601 37.8503 21.9101 38.9903 17.8301C39.5403 15.8601 39.8703 13.8401 40.0403 11.7901C40.2103 9.8001 40.3703 7.8101 40.5403 5.7901C31.1103 5.8001 21.7303 5.80011 12.3003 5.80011ZM38.3803 55.9401C38.3903 55.8601 38.4003 55.8001 38.4003 55.7401C38.4003 53.4901 38.4003 51.2301 38.4003 48.9801C38.4003 48.5701 38.2703 48.4301 37.8803 48.4301C36.7803 48.4201 35.6803 48.4101 34.5803 48.4101C28.0303 48.4101 21.4803 48.4101 14.9403 48.4101C14.4303 48.4101 14.2903 48.5701 14.2903 49.1201C14.2903 51.2901 14.2903 53.4501 14.2903 55.6201C14.2903 55.7301 14.3003 55.8301 14.3103 55.9401C22.3503 55.9401 30.3603 55.9401 38.3803 55.9401ZM26.4703 1.78009V1.77011C25.4803 1.77011 24.5003 1.77011 23.5103 1.77011C19.4503 1.77011 15.3903 1.78009 11.3303 1.78009C10.8203 1.78009 10.8203 1.7801 10.8203 2.3501C10.8203 2.7701 10.8203 3.19011 10.8203 3.61011C10.8203 4.18011 10.9203 4.2901 11.4603 4.2901C12.4303 4.2901 13.4103 4.2901 14.3803 4.2901C23.4203 4.2901 32.4503 4.2901 41.4903 4.2901C41.9703 4.2901 42.0803 4.1701 42.0803 3.6701C42.0803 3.2101 42.0803 2.76011 42.0803 2.30011C42.0803 1.79011 42.0803 1.7901 41.6103 1.7901C36.5603 1.7801 31.5203 1.78009 26.4703 1.78009ZM41.0203 59.9901C41.0203 59.3001 41.0103 58.6201 41.0303 57.9501C41.0403 57.6301 40.9403 57.5301 40.6403 57.5301C39.4703 57.5401 38.3003 57.5301 37.1303 57.5301C32.1903 57.5301 27.2403 57.5301 22.3003 57.5301C18.9803 57.5301 15.6703 57.5301 12.3503 57.5301C11.7703 57.5301 11.7903 57.3901 11.7803 58.1501C11.7803 58.6101 11.7803 59.0601 11.7803 59.5201C11.7803 60.0301 11.7803 60.0301 12.2503 60.0301C21.7103 60.0301 31.1803 60.0201 40.6403 60.0201C40.7503 60.0101 40.8603 60.0001 41.0203 59.9901ZM41.9203 7.6701C42.1003 7.6701 42.2203 7.6701 42.3503 7.6701C44.1503 7.6701 45.9503 7.6701 47.7503 7.6701C48.5303 7.6701 48.9403 8.01009 48.9403 8.84009C48.9403 9.77009 48.9003 10.7101 48.7303 11.6101C48.0503 15.2701 46.2903 18.2801 43.6903 20.7301C42.1303 22.2001 40.3503 23.2701 38.4203 24.0501C38.2703 24.1101 38.1203 24.2601 38.0203 24.4101C37.5103 25.1901 37.0303 25.9701 36.5303 26.7601C36.4803 26.8401 36.4303 26.9301 36.3603 27.0301C39.1703 26.4101 41.6803 25.1601 43.9303 23.3501C46.7903 21.0501 48.9403 18.1401 50.2103 14.5301C50.8903 12.6001 51.3203 10.6101 51.2003 8.52011C51.0903 6.66011 49.9403 5.52011 48.2103 5.52011C46.5903 5.53011 44.9703 5.5401 43.3603 5.5101C42.8303 5.5001 42.4903 5.83011 42.1203 6.11011C42.0403 6.17011 41.9903 6.32011 41.9903 6.43011C41.9403 6.83011 41.9403 7.2201 41.9203 7.6701ZM16.6503 27.1101C16.0503 26.1601 15.5003 25.3001 14.9503 24.4401C14.9003 24.3701 14.8103 24.3301 14.7303 24.2901C14.1103 23.9801 13.4703 23.7101 12.8603 23.3701C8.53033 20.9501 5.59032 17.2901 4.29032 12.1801C4.02032 11.1201 3.86032 10.0401 3.92032 8.94009C3.97032 8.01009 4.32032 7.6701 5.17032 7.6701C6.98032 7.6701 8.79033 7.6701 10.6103 7.6701C10.7303 7.6701 10.8603 7.6701 11.0203 7.6701C11.0203 7.4001 11.0203 7.17009 11.0203 6.94009C11.0203 6.19009 10.3803 5.52011 9.67032 5.52011C8.02032 5.52011 6.3703 5.52011 4.7103 5.52011C4.3803 5.52011 4.04032 5.5101 3.73032 5.6001C2.62032 5.9101 1.80031 7.1201 1.72031 8.5101C1.64031 9.9301 1.8603 11.3201 2.1803 12.7001C3.1303 16.7001 5.26033 19.9101 8.11033 22.5901C9.95033 24.3201 12.0803 25.5201 14.3903 26.3801C15.1103 26.6501 15.8503 26.8601 16.6503 27.1101ZM47.6003 9.22009C45.6303 9.22009 43.7403 9.22009 41.8703 9.22009C41.7403 13.7101 40.6703 17.9501 39.1703 22.0901C44.1503 19.4301 47.0503 15.2401 47.6003 9.22009ZM5.34031 9.2001C5.46031 12.0801 6.37031 14.6101 7.91031 16.8901C9.44031 19.1601 11.3903 20.9001 13.7703 22.2101C11.8803 18.0501 11.2903 13.6701 11.0903 9.19009C9.16031 9.20009 7.28031 9.2001 5.34031 9.2001ZM28.4203 36.4101C27.1203 36.4101 25.8203 36.4101 24.5303 36.4101C24.3703 39.7201 23.6403 42.7301 20.8403 44.7601C24.5703 44.7601 28.1903 44.7601 31.8403 44.7601C29.1903 42.6801 28.6003 39.6701 28.4203 36.4101ZM26.4003 34.8501C27.1903 34.8601 27.9803 34.8601 28.7703 34.8501C29.4103 34.8401 29.8003 34.3801 29.7903 33.6901C29.7803 33.0801 29.4403 32.8101 28.7703 32.8001C27.1903 32.7901 25.6103 32.7601 24.0303 32.7401C23.9303 32.7401 23.8203 32.7601 23.7303 32.7901C23.3103 32.9401 23.0303 33.4001 23.0803 33.8501C23.1403 34.3901 23.5503 34.8401 24.0303 34.8401C24.8203 34.8601 25.6103 34.8501 26.4003 34.8501ZM34.5103 46.3801C29.1103 46.3801 23.7503 46.3801 18.3903 46.3801C18.3903 46.5501 18.3903 46.6901 18.3903 46.8401C23.7703 46.8401 29.1303 46.8401 34.5103 46.8401C34.5103 46.6801 34.5103 46.5501 34.5103 46.3801Z" fill="var(--fill-0, white)" stroke="var(--stroke-0, #00609A)" stroke-width="0.5" stroke-miterlimit="10"/>
<path id="Vector_2" d="M12.3003 5.80011C21.7203 5.80011 31.1003 5.80011 40.5503 5.80011C40.3803 7.82011 40.2103 9.81011 40.0503 11.8001C39.8803 13.8501 39.5603 15.8701 39.0003 17.8401C37.8603 21.9101 35.9003 25.4701 33.0003 28.3901C31.6803 29.7201 30.1903 30.7901 28.3603 31.1201C25.5203 31.6301 22.9203 31.0901 20.6403 29.0301C16.9503 25.6901 14.7303 21.4301 13.5703 16.4701C13.0703 14.3201 12.7603 12.1401 12.5903 9.94009C12.4803 8.56009 12.4003 7.19011 12.3003 5.80011Z" fill="var(--fill-0, white)" stroke="var(--stroke-0, #00609A)" stroke-width="0.5" stroke-miterlimit="10"/>
<path id="Vector_3" d="M38.3803 55.9401C30.3503 55.9401 22.3403 55.9401 14.3003 55.9401C14.2903 55.8401 14.2803 55.7301 14.2803 55.6201C14.2803 53.4501 14.2803 51.2901 14.2803 49.1201C14.2803 48.5701 14.4203 48.4101 14.9303 48.4101C21.4803 48.4101 28.0303 48.4101 34.5703 48.4101C35.6703 48.4101 36.7703 48.4201 37.8703 48.4301C38.2603 48.4301 38.3903 48.5701 38.3903 48.9801C38.3903 51.2301 38.3903 53.4901 38.3903 55.7401C38.4003 55.8001 38.3903 55.8601 38.3803 55.9401Z" fill="var(--fill-0, white)" stroke="var(--stroke-0, #00609A)" stroke-width="0.5" stroke-miterlimit="10"/>
<path id="Vector_4" d="M26.4703 1.78009C31.5203 1.78009 36.5603 1.78009 41.6103 1.78009C42.0803 1.78009 42.0803 1.7801 42.0803 2.2901C42.0803 2.7501 42.0803 3.2001 42.0803 3.6601C42.0803 4.1601 41.9703 4.28009 41.4903 4.28009C32.4503 4.28009 23.4203 4.28009 14.3803 4.28009C13.4103 4.28009 12.4303 4.28009 11.4603 4.28009C10.9203 4.28009 10.8103 4.1701 10.8203 3.6001C10.8203 3.1801 10.8203 2.76009 10.8203 2.34009C10.8203 1.78009 10.8203 1.77011 11.3303 1.77011C15.3903 1.77011 19.4503 1.7601 23.5103 1.7601C24.5003 1.7601 25.4803 1.7601 26.4703 1.7601C26.4703 1.7701 26.4703 1.78009 26.4703 1.78009Z" fill="var(--fill-0, white)" stroke="var(--stroke-0, #00609A)" stroke-width="0.5" stroke-miterlimit="10"/>
<path id="Vector_5" d="M41.0203 59.9901C40.8703 60.0001 40.7503 60.0101 40.6403 60.0101C31.1803 60.0101 21.7103 60.0201 12.2503 60.0201C11.7803 60.0201 11.7803 60.0201 11.7803 59.5101C11.7803 59.0501 11.7803 58.6001 11.7803 58.1401C11.7903 57.3801 11.7603 57.5201 12.3503 57.5201C15.6703 57.5101 18.9803 57.5201 22.3003 57.5201C27.2403 57.5201 32.1903 57.5201 37.1303 57.5201C38.3003 57.5201 39.4703 57.5401 40.6403 57.5201C40.9403 57.5201 41.0403 57.6201 41.0303 57.9401C41.0003 58.6201 41.0203 59.3001 41.0203 59.9901Z" fill="var(--fill-0, white)" stroke="var(--stroke-0, #00609A)" stroke-width="0.5" stroke-miterlimit="10"/>
<path id="Vector_6" d="M41.9203 7.67012C41.9403 7.22012 41.9503 6.83013 41.9803 6.43013C41.9903 6.32013 42.0403 6.17012 42.1103 6.11012C42.4803 5.82012 42.8203 5.50012 43.3503 5.51012C44.9703 5.54012 46.5803 5.53013 48.2003 5.52013C49.9203 5.51013 51.0803 6.66013 51.1903 8.52013C51.3103 10.6101 50.8703 12.6001 50.2003 14.5301C48.9303 18.1401 46.7803 21.0501 43.9203 23.3501C41.6703 25.1601 39.1603 26.4101 36.3503 27.0301C36.4103 26.9301 36.4603 26.8401 36.5203 26.7601C37.0103 25.9801 37.5003 25.1901 38.0103 24.4101C38.1103 24.2601 38.2503 24.1201 38.4103 24.0501C40.3503 23.2701 42.1303 22.1901 43.6803 20.7301C46.2803 18.2801 48.0403 15.2801 48.7203 11.6101C48.8903 10.7101 48.9303 9.7601 48.9303 8.8401C48.9303 8.0101 48.5203 7.67012 47.7403 7.67012C45.9403 7.67012 44.1403 7.67012 42.3403 7.67012C42.2203 7.67012 42.1003 7.67012 41.9203 7.67012Z" fill="var(--fill-0, white)" stroke="var(--stroke-0, #00609A)" stroke-width="0.5" stroke-miterlimit="10"/>
<path id="Vector_7" d="M16.6503 27.1101C15.8503 26.8501 15.1103 26.6501 14.3903 26.3801C12.0903 25.5201 9.95032 24.3201 8.11032 22.5901C5.26032 19.9101 3.13029 16.7001 2.18029 12.7001C1.85029 11.3301 1.6403 9.94009 1.7203 8.51009C1.8003 7.12009 2.62031 5.91009 3.73031 5.60009C4.04031 5.51009 4.38029 5.5201 4.71029 5.5201C6.36029 5.5101 8.01031 5.5201 9.67031 5.5201C10.3803 5.5201 11.0203 6.19008 11.0203 6.94008C11.0203 7.17008 11.0203 7.40009 11.0203 7.67009C10.8603 7.67009 10.7303 7.67009 10.6103 7.67009C8.80032 7.67009 6.99031 7.67009 5.17031 7.67009C4.32031 7.67009 3.97031 8.01008 3.92031 8.94008C3.86031 10.0401 4.03031 11.1201 4.29031 12.1801C5.58031 17.2901 8.52032 20.9501 12.8603 23.3701C13.4703 23.7101 14.1103 23.9801 14.7303 24.2901C14.8103 24.3301 14.9103 24.3701 14.9503 24.4401C15.5003 25.3001 16.0503 26.1601 16.6503 27.1101Z" fill="var(--fill-0, white)" stroke="var(--stroke-0, #00609A)" stroke-width="0.5" stroke-miterlimit="10"/>
<path id="Vector_8" d="M47.6003 9.22009C47.0403 15.2401 44.1403 19.4301 39.1703 22.0901C40.6703 17.9401 41.7303 13.7101 41.8703 9.22009C43.7503 9.22009 45.6303 9.22009 47.6003 9.22009Z" stroke="var(--stroke-0, #00609A)" stroke-width="0.5" stroke-miterlimit="10"/>
<path id="Vector_9" d="M5.3403 9.2001C7.2803 9.2001 9.1603 9.2001 11.0903 9.2001C11.2903 13.6701 11.8803 18.0601 13.7703 22.2201C11.3903 20.9101 9.44031 19.1701 7.91031 16.9001C6.37031 14.6101 5.4603 12.0701 5.3403 9.2001Z" stroke="var(--stroke-0, #00609A)" stroke-width="0.5" stroke-miterlimit="10"/>
<path id="Vector_10" d="M28.4203 36.4101C28.6003 39.6601 29.1903 42.6801 31.8403 44.7601C28.1903 44.7601 24.5703 44.7601 20.8403 44.7601C23.6403 42.7401 24.3703 39.7201 24.5303 36.4101C25.8203 36.4101 27.1203 36.4101 28.4203 36.4101Z" fill="var(--fill-0, white)" stroke="var(--stroke-0, #00609A)" stroke-width="0.5" stroke-miterlimit="10"/>
<path id="Vector_11" d="M26.4003 34.8501C25.6103 34.8501 24.8203 34.8601 24.0303 34.8501C23.5503 34.8401 23.1403 34.3901 23.0803 33.8601C23.0303 33.4101 23.3103 32.9601 23.7303 32.8001C23.8303 32.7701 23.9303 32.7501 24.0303 32.7501C25.6103 32.7701 27.1903 32.8001 28.7703 32.8101C29.4403 32.8101 29.7803 33.0901 29.7903 33.7001C29.8003 34.3901 29.4103 34.8501 28.7703 34.8601C27.9803 34.8701 27.1903 34.8601 26.4003 34.8501Z" fill="var(--fill-0, white)" stroke="var(--stroke-0, #00609A)" stroke-width="0.5" stroke-miterlimit="10"/>
<path id="Vector_12" d="M34.5103 46.3801C34.5103 46.5501 34.5103 46.6801 34.5103 46.8401C29.1403 46.8401 23.7803 46.8401 18.3903 46.8401C18.3903 46.7001 18.3903 46.5501 18.3903 46.3801C23.7403 46.3801 29.1003 46.3801 34.5103 46.3801Z" fill="var(--fill-0, white)"/>
</g>
</svg>
