<svg preserveAspectRatio="none" width="100%" height="100%" overflow="visible" style="display: block;" viewBox="0 0 48.4262 12.1375" fill="none" xmlns="http://www.w3.org/2000/svg">
<g id="Stars">
<path id="Vector" opacity="0.69" d="M34.9456 2.02689L36.1356 4.53687L38.7856 4.94687L36.8656 6.90686L37.3156 9.66687L34.9456 8.35688L32.5756 9.66687L33.0256 6.90686L31.1156 4.94687L33.7656 4.53687L34.9456 2.02689Z" fill="var(--fill-0, white)" stroke="var(--stroke-0, #00609A)" stroke-width="0.5" stroke-miterlimit="10"/>
<path id="Vector_2" opacity="0.69" d="M26.5456 2.03687L27.7856 4.74689L30.5556 5.18686L28.5556 7.29688L29.0256 10.2769L26.5456 8.86689L24.0756 10.2769L24.5456 7.29688L22.5456 5.18686L25.3156 4.74689L26.5456 2.03687Z" fill="var(--fill-0, white)" stroke="var(--stroke-0, #00609A)" stroke-width="0.5" stroke-miterlimit="10"/>
<path id="Vector_3" opacity="0.69" d="M43.8056 1.76688L45.0756 4.45688L47.9056 4.88687L45.8556 6.97687L46.3356 9.92688L43.8056 8.53687L41.2756 9.92688L41.7556 6.97687L39.7056 4.88687L42.5356 4.45688L43.8056 1.76688Z" fill="var(--fill-0, white)" stroke="var(--stroke-0, #00609A)" stroke-width="0.5" stroke-miterlimit="10"/>
<path id="Vector_4" d="M5.4856 0.636874L7.03562 4.25687L10.4956 4.83689L7.99561 7.66687L8.5856 11.6469L5.4856 9.76688L2.3956 11.6469L2.9856 7.66687L0.485597 4.83689L3.94559 4.25687L5.4856 0.636874Z" fill="var(--fill-0, white)" stroke="var(--stroke-0, #00609A)" stroke-width="0.5" stroke-miterlimit="10"/>
<path id="Vector_5" d="M16.5856 1.07688L18.0656 4.40686L21.3756 4.94687L18.9756 7.53687L19.5456 11.2069L16.5856 9.47687L13.6156 11.2069L14.1856 7.53687L11.7856 4.94687L15.0956 4.40686L16.5856 1.07688Z" fill="var(--fill-0, white)" stroke="var(--stroke-0, #00609A)" stroke-width="0.5" stroke-miterlimit="10"/>
</g>
</svg>
