<svg preserveAspectRatio="none" width="100%" height="100%" overflow="visible" style="display: block;" viewBox="0 0 47.2355 13.5576" fill="none" xmlns="http://www.w3.org/2000/svg">
<g id="Stars">
<path id="Vector" opacity="0.69" d="M42.6055 3.29706L43.8555 5.64707L46.6655 6.02707L44.6355 7.84705L45.1155 10.437L42.6055 9.21705L40.0955 10.437L40.5755 7.84705L38.5555 6.02707L41.3555 5.64707L42.6055 3.29706Z" fill="var(--fill-0, white)" stroke="var(--stroke-0, #00609A)" stroke-width="0.5" stroke-miterlimit="10"/>
<path id="Vector_2" opacity="0.69" d="M14.3855 3.27707L15.6855 5.80707L18.6155 6.21705L16.4955 8.18705L16.9955 10.967L14.3855 9.65705L11.7655 10.967L12.2655 8.18705L10.1455 6.21705L13.0755 5.80707L14.3855 3.27707Z" fill="var(--fill-0, white)" stroke="var(--stroke-0, #00609A)" stroke-width="0.5" stroke-miterlimit="10"/>
<path id="Vector_3" opacity="0.69" d="M33.7355 3.31705L35.0755 5.82706L38.0655 6.23707L35.9055 8.18705L36.4155 10.9471L33.7355 9.64707L31.0655 10.9471L31.5755 8.18705L29.4055 6.23707L32.3955 5.82706L33.7355 3.31705Z" fill="var(--fill-0, white)" stroke="var(--stroke-0, #00609A)" stroke-width="0.5" stroke-miterlimit="10"/>
<path id="Vector_4" d="M24.0455 0.637059L25.7955 4.72706L29.6955 5.38706L26.8655 8.57706L27.5355 13.0671L24.0455 10.9471L20.5555 13.0671L21.2255 8.57706L18.4055 5.38706L22.3055 4.72706L24.0455 0.637059Z" fill="var(--fill-0, white)" stroke="var(--stroke-0, #00609A)" stroke-width="0.5" stroke-miterlimit="10"/>
<path id="Vector_5" opacity="0.69" d="M4.52551 2.73707L5.75552 5.23707L8.51553 5.63706L6.51553 7.58707L6.99551 10.3371L4.52551 9.03705L2.05551 10.3371L2.52551 7.58707L0.535517 5.63706L3.28552 5.23707L4.52551 2.73707Z" fill="var(--fill-0, white)" stroke="var(--stroke-0, #00609A)" stroke-width="0.5" stroke-miterlimit="10"/>
</g>
</svg>
