<svg preserveAspectRatio="none" width="100%" height="100%" overflow="visible" style="display: block;" viewBox="0 0 69.055 59.9997" fill="none" xmlns="http://www.w3.org/2000/svg">
<g id="Muscle">
<path id="Vector" d="M62.166 47.3775C62.726 47.7675 63.326 48.0775 63.966 48.2975C61.846 46.1175 58.836 44.6475 55.686 43.2875C56.066 43.8875 56.496 44.4675 56.946 45.0475C57.346 45.5675 57.636 46.0175 57.586 46.6375C57.536 47.2675 57.736 47.9075 57.846 48.5475C57.896 48.8475 57.916 49.1675 57.506 49.2575C57.256 49.3175 56.876 49.2275 56.636 49.1075C56.246 48.9275 55.886 48.6975 55.576 48.4475C54.466 47.5575 53.316 46.6975 52.306 45.7475C51.096 44.5975 49.926 43.4175 48.896 42.1675C47.826 40.8775 46.856 39.5475 45.856 38.2175C45.056 37.5375 44.376 36.7875 43.836 35.9575C43.556 35.7575 43.236 35.5675 42.876 35.3975C42.956 35.5775 43.006 35.6575 43.036 35.7475C43.326 36.4875 43.696 37.2275 43.896 37.9875C44.076 38.6575 43.846 39.2575 42.926 39.5975C42.186 39.8675 41.496 40.2175 40.736 40.4675C36.736 41.7875 32.526 42.3475 28.206 42.4875C24.896 42.5975 21.716 42.1975 18.736 41.0475C18.636 41.0075 18.556 40.9475 18.446 40.8875C19.976 40.0075 20.886 39.0575 21.256 38.0675C20.976 38.2475 20.586 38.4975 20.186 38.7575C18.516 39.8275 16.666 40.5376 14.396 40.4076C10.916 40.2076 7.57599 39.5875 4.46599 38.3475C4.20599 38.2475 3.92597 38.1675 3.66597 38.0775C3.66597 38.0375 3.67598 38.0075 3.67598 37.9675C6.14598 37.9875 8.45598 37.6175 10.526 36.5575C8.86598 37.0175 7.14599 37.0975 5.40599 37.0675C4.23599 37.0475 3.12598 36.8275 2.17598 36.2675C1.52598 35.8875 1.28598 35.0075 1.67598 34.4875C2.28598 34.8375 2.89597 35.1975 3.54597 35.5675C3.55597 35.4775 3.57599 35.4375 3.56599 35.4275C2.10599 33.7975 1.71598 31.9375 1.45598 30.0375C1.17598 27.9875 1.94598 26.0775 2.73598 24.1775C3.94598 21.2575 5.74598 18.5175 7.45598 15.7575C9.20598 12.9375 10.946 10.1075 12.626 7.25753C13.266 6.16753 13.716 5.00752 14.226 3.87752C14.416 3.46752 14.676 3.11755 15.186 2.90755C15.976 2.57755 16.776 2.27754 17.546 1.92754C18.206 1.62754 18.866 1.65752 19.546 1.81752C19.866 1.88752 20.176 1.96752 20.486 2.03752C21.796 2.30752 23.106 2.56753 24.416 2.82753C24.436 2.78753 24.456 2.75755 24.466 2.71755C23.066 2.22755 21.656 1.73755 20.256 1.24755C20.276 1.19755 20.296 1.15753 20.316 1.10753C23.266 1.03753 26.016 1.82754 28.836 2.36754L26.186 1.40755C26.196 1.36755 26.216 1.33753 26.226 1.29753C26.526 1.31753 26.816 1.35754 27.116 1.36754C27.976 1.39754 28.836 1.40753 29.696 1.44753C31.246 1.51753 32.446 2.01754 33.176 3.11754C33.776 4.02754 34.386 4.93754 35.076 5.80754C35.446 6.27754 35.536 6.74755 35.456 7.24755C35.396 7.64755 35.086 7.93753 34.596 8.10753C34.086 8.27753 33.806 8.15755 33.606 7.74755C32.976 6.44755 32.326 5.15753 31.686 3.85753C31.616 3.86753 31.546 3.86752 31.486 3.87752C31.486 4.13752 31.416 4.40754 31.496 4.64754C31.806 5.53754 32.226 6.40753 32.506 7.29753C32.666 7.81753 32.706 8.37755 32.696 8.90755C32.686 9.35755 32.196 9.68753 31.686 9.69753C30.996 9.70753 30.676 9.52752 30.516 9.03752C30.216 8.11752 29.926 7.19754 29.616 6.27754C29.396 5.62754 29.146 4.97753 28.906 4.32753C28.506 4.80753 28.656 5.25755 28.806 5.71755C29.156 6.81755 29.476 7.92752 29.316 9.06752C29.266 9.45752 29.076 9.84753 28.836 10.1975C28.616 10.5175 28.136 10.5475 27.716 10.4275C27.326 10.3175 26.976 10.1775 26.936 9.76753C26.856 8.74753 26.736 7.73753 26.596 6.72753C26.506 6.03753 26.356 5.34755 26.236 4.65755C26.146 4.65755 26.066 4.65753 25.976 4.66753C25.936 5.19753 25.856 5.73753 25.876 6.26753C25.906 7.32753 26.006 8.38753 26.056 9.44753C26.076 10.0075 25.866 10.2375 25.136 10.2575C24.586 10.2775 24.026 10.1775 23.486 10.0775C23.146 10.0175 22.996 9.80755 23.006 9.49755C23.036 8.72755 23.036 7.95753 23.016 7.19753C23.006 6.67753 22.936 6.16754 22.896 5.64754C22.686 6.08754 22.596 6.53753 22.476 6.97753C22.436 7.10753 22.306 7.34754 22.246 7.33754C21.996 7.31754 21.576 7.25754 21.526 7.14754C21.316 6.56754 20.496 6.47752 20.126 6.03752C20.106 6.62752 20.466 7.06753 20.916 7.50753C21.106 7.68753 21.096 8.01753 21.056 8.26753C21.046 8.32753 20.556 8.40754 20.316 8.36754C19.816 8.29754 19.306 8.19753 18.856 8.01753C18.106 7.72753 17.406 7.37753 16.586 7.00753C16.796 7.35753 16.996 7.66753 17.146 7.97753C17.236 8.15753 17.326 8.38753 17.256 8.54753C17.016 9.11753 16.746 9.68753 16.406 10.2275C15.446 11.7675 14.636 13.3375 14.566 15.0575C14.526 15.9875 14.656 16.9275 14.706 17.8575C14.766 17.8575 14.826 17.8575 14.886 17.8475C14.876 17.6875 14.866 17.5275 14.856 17.3675C14.546 14.1075 15.986 11.3675 19.066 9.12752C19.226 9.00752 19.516 8.99753 19.706 8.94753C19.426 9.63753 19.076 10.2375 18.956 10.8675C18.396 13.7675 17.886 16.6675 17.366 19.5775C17.306 19.8975 17.286 20.2175 17.256 20.5375C17.296 20.5475 17.326 20.5475 17.366 20.5575C17.716 19.6775 18.056 18.7975 18.436 17.8275C18.516 18.0075 18.586 18.0975 18.606 18.1975C19.136 20.7275 19.696 23.2675 20.186 25.8075C20.336 26.5875 20.356 27.3975 20.326 28.1875C20.286 29.1575 19.926 30.0575 19.066 30.8075C18.896 30.9575 18.716 31.0875 18.546 31.2375C18.866 31.1475 19.116 31.0175 19.336 30.8575C20.876 29.8075 21.276 28.3576 21.576 26.9076C21.666 26.4776 21.876 26.1975 22.306 25.9475C24.886 24.4275 27.856 24.1375 30.946 24.4475C32.326 24.5875 33.676 24.9575 35.006 25.2775C37.296 25.8275 39.356 26.7175 41.246 27.8375C41.616 28.0575 41.976 28.2775 42.336 28.5075C42.356 28.2475 42.386 27.9775 42.416 27.7175C41.216 26.6475 39.696 25.8375 38.146 24.9975C40.606 23.3375 43.436 22.3475 46.556 21.8075C50.486 21.1275 54.356 21.3575 58.166 22.2675C58.166 22.3275 58.156 22.3875 58.156 22.4475C56.976 22.3975 55.806 22.3475 54.626 22.2975C55.486 22.5875 56.386 22.7975 57.276 23.0075C59.426 23.4975 61.526 23.4775 63.576 22.7175C65.206 22.1175 66.696 21.3775 67.736 20.1975C67.956 19.9475 68.086 19.6575 68.256 19.3975C67.616 19.7775 67.056 20.1775 66.406 20.4675C64.936 21.1175 63.286 21.3375 61.606 21.3675C59.076 21.4175 56.646 20.9175 54.186 20.5675C52.676 20.3575 51.156 20.1375 49.636 20.0775C47.206 19.9875 44.906 20.4975 42.646 21.1375C40.226 21.8275 37.976 22.7175 36.046 24.0575C35.896 24.1675 35.546 24.1675 35.316 24.1375C33.776 23.8975 32.266 23.5475 30.716 23.3975C28.496 23.1775 26.296 23.3975 24.196 24.0275C23.426 24.2575 22.696 24.5775 21.936 24.8575C21.916 24.8175 21.876 24.7575 21.856 24.6975C21.426 23.2175 21.086 21.7175 20.566 20.2575C19.856 18.2475 19.366 16.2175 19.626 14.1375C19.756 13.0575 19.986 11.9775 20.316 10.9275C20.446 10.5075 20.936 10.1275 21.326 9.77754C21.556 9.56754 21.826 9.61755 22.046 9.90755C23.006 11.2075 25.166 11.3975 26.476 10.7575C26.946 11.4175 27.776 11.3275 28.586 11.3375C29.126 11.3475 29.666 11.1575 30.216 11.4175C30.406 11.5075 30.856 11.4475 31.036 11.3275C31.496 11.0275 31.996 10.9675 32.556 10.9775C32.766 10.9775 32.986 10.9175 33.186 10.8575C34.446 10.4675 35.206 9.64753 35.996 8.85753C36.976 7.87753 37.106 6.84754 36.246 5.77754C35.486 4.82754 34.736 3.86754 33.946 2.92754C33.356 2.22754 32.676 1.55753 31.596 1.29753C30.806 1.10753 29.946 1.05754 29.116 0.957538C27.366 0.767538 25.606 0.60754 23.856 0.39754C22.096 0.18754 20.336 0.127526 18.686 0.727527C17.556 1.13753 16.526 1.70755 15.426 2.18755C14.466 2.60755 13.886 3.23754 13.536 4.01754C13.436 4.23754 13.376 4.47753 13.266 4.69753C11.736 8.08753 9.52598 11.2375 7.33598 14.3975C5.55598 16.9575 3.77598 19.5275 2.45598 22.2575C1.03598 25.1875 0.115975 28.1875 0.265975 31.3375C0.325975 32.7075 0.575985 34.0775 0.525985 35.4675C0.485985 36.4075 0.935975 37.2775 2.01597 37.8675C2.50597 38.1375 2.986 38.4075 3.476 38.6675C6.516 40.2775 9.94597 41.0875 13.576 41.4775C14.396 41.5675 15.246 41.4675 16.036 41.8075C17.036 42.2375 18.086 42.6075 19.146 42.9375C21.846 43.7775 24.606 44.4776 27.586 44.4076C28.866 44.3776 30.136 44.2675 31.406 44.1875C33.836 44.0375 36.226 43.6775 38.516 43.0475C40.236 42.5775 41.896 41.9975 43.576 41.4475C43.886 41.3475 44.136 41.3275 44.366 41.5175C44.726 41.8075 45.096 42.0975 45.426 42.4175C46.536 43.4675 47.516 44.6175 48.746 45.5775C51.976 48.0775 55.296 50.5175 58.616 52.9475C60.476 54.3075 62.406 55.6075 63.796 57.2975C64.296 57.8975 65.036 58.3875 65.666 58.9175C63.566 55.1975 61.716 51.5075 62.166 47.3775Z" fill="var(--fill-0, white)" stroke="var(--stroke-0, white)" stroke-width="0.5" stroke-miterlimit="10"/>
<path id="Vector_2" d="M42.606 32.3775C42.576 32.3375 42.516 32.2775 42.426 32.2375C42.286 32.1575 42.206 32.1775 42.116 32.0975C42.036 32.0275 42.016 31.9376 42.006 31.9076C41.986 31.8176 42.006 31.7376 42.026 31.6576C42.056 31.5576 42.086 31.4875 42.106 31.4575C42.156 31.3575 42.216 31.2175 42.276 31.0175C42.306 30.9175 42.336 30.7875 42.346 30.6375C42.366 30.4175 42.336 30.2276 42.296 30.0876C41.836 30.4276 41.386 30.7676 40.886 31.0576C38.976 32.1976 36.676 32.5375 34.376 32.8475C33.286 32.9875 32.176 33.0376 31.066 33.0876C28.716 33.1876 26.446 32.9675 24.336 32.1075C24.136 32.0275 23.946 31.9276 23.746 31.8376C23.706 31.8776 23.666 31.9075 23.626 31.9475C24.076 32.2875 24.476 32.6775 24.996 32.9475C27.606 34.2875 30.566 34.4875 33.526 34.1375C35.946 33.8575 38.306 33.2575 40.696 32.7875C41.426 32.6475 42.146 32.6375 42.836 32.8775C42.826 32.8075 42.796 32.7075 42.736 32.5975C42.706 32.4975 42.656 32.4275 42.606 32.3775Z" fill="var(--fill-0, white)"/>
</g>
</svg>
