<svg preserveAspectRatio="none" width="100%" height="100%" overflow="visible" style="display: block;" viewBox="0 0 175 152.837" fill="none" xmlns="http://www.w3.org/2000/svg">
<g id="PieLayer">
<path id="pie1" d="M126.131 139.843C117.7 145.556 108.22 149.338 98.3012 150.947C88.3822 152.556 78.2431 151.956 68.5353 149.185C58.8276 146.414 49.766 141.533 41.9326 134.857C34.0993 128.181 27.6674 119.856 23.0503 110.419L35.5751 103.646C39.2879 111.235 44.4601 117.929 50.7592 123.298C57.0584 128.666 64.3453 132.591 72.1517 134.819C79.9581 137.047 88.1114 137.53 96.0878 136.236C104.064 134.943 111.687 131.901 118.467 127.307L126.131 139.843Z" fill="var(--fill-0, #005F99)"/>
<path id="pie2" d="M23.3475 111.34C16.1519 96.4332 13.8173 79.4368 16.7056 62.9867C19.594 46.5367 27.544 31.5523 39.3226 20.3576L48.9581 31.6534C39.5352 40.6092 33.1752 52.5967 30.8645 65.7567C28.5538 78.9168 30.4215 92.5139 36.178 104.439L23.3475 111.34Z" fill="var(--fill-0, #00609A)"/>
<path id="pie3" d="M37.5907 23.0302C47.3378 12.6562 59.6484 5.37474 73.0735 2.04278C86.4987 -1.28917 100.48 -0.532962 113.371 4.22242C126.262 8.9778 137.527 17.5344 145.84 28.8853C154.153 40.2361 159.169 53.9087 160.295 68.2939C161.422 82.6792 158.614 97.1783 152.201 110.085C145.788 122.991 136.038 133.768 124.097 141.147C112.156 148.526 98.5222 152.2 84.7998 151.736C71.0773 151.272 57.8374 146.69 46.6383 138.529L54.9946 126C63.9538 132.529 74.5458 136.195 85.5238 136.566C96.5017 136.937 107.409 133.998 116.961 128.095C126.514 122.192 134.315 113.571 139.445 103.245C144.575 92.9201 146.822 81.3208 145.92 69.8126C145.019 58.3045 141.007 47.3664 134.356 38.2857C127.706 29.205 118.694 22.3597 108.381 18.5554C98.0676 14.7511 86.8829 14.1461 76.1428 16.8117C65.4027 19.4773 55.5542 25.3024 47.7565 33.6016L37.5907 23.0302Z" fill="var(--fill-0, #9CA3AF)"/>
</g>
</svg>
