<svg preserveAspectRatio="none" width="100%" height="100%" overflow="visible" style="display: block;" viewBox="0 0 102 22" fill="none" xmlns="http://www.w3.org/2000/svg">
<g id="Levels">
<path id="Cellular Connection" fill-rule="evenodd" clip-rule="evenodd" d="M31.3651 6.53302C31.3651 5.89998 30.8876 5.38679 30.2985 5.38679H29.2318C28.6427 5.38679 28.1651 5.89998 28.1651 6.53302V16.467C28.1651 17.1 28.6427 17.6132 29.2318 17.6132H30.2985C30.8876 17.6132 31.3651 17.1 31.3651 16.467V6.53302ZM23.931 7.83207H24.9977C25.5868 7.83207 26.0644 8.35757 26.0644 9.00581V16.4395C26.0644 17.0877 25.5868 17.6132 24.9977 17.6132H23.931C23.3419 17.6132 22.8644 17.0877 22.8644 16.4395V9.00581C22.8644 8.35757 23.3419 7.83207 23.931 7.83207ZM19.5993 10.4811H18.5326C17.9435 10.4811 17.4659 11.0133 17.4659 11.6698V16.4245C17.4659 17.081 17.9435 17.6132 18.5326 17.6132H19.5993C20.1884 17.6132 20.6659 17.081 20.6659 16.4245V11.6698C20.6659 11.0133 20.1884 10.4811 19.5993 10.4811ZM14.2985 12.9264H13.2318C12.6427 12.9264 12.1651 13.451 12.1651 14.0981V16.4415C12.1651 17.0886 12.6427 17.6132 13.2318 17.6132H14.2985C14.8876 17.6132 15.3651 17.0886 15.3651 16.4415V14.0981C15.3651 13.451 14.8876 12.9264 14.2985 12.9264Z" fill="var(--fill-0, black)"/>
<path id="Wifi" fill-rule="evenodd" clip-rule="evenodd" d="M46.9365 7.80213C49.4236 7.80223 51.8156 8.72432 53.6181 10.3778C53.7538 10.5055 53.9708 10.5038 54.1045 10.3742L55.4019 9.11072C55.4696 9.04496 55.5074 8.95588 55.5068 8.8632C55.5063 8.77052 55.4674 8.68188 55.399 8.61688C50.6679 4.24217 43.2042 4.24217 38.4732 8.61688C38.4047 8.68183 38.3658 8.77045 38.3652 8.86313C38.3645 8.95581 38.4022 9.04491 38.4698 9.11072L39.7677 10.3742C39.9013 10.504 40.1184 10.5056 40.2541 10.3778C42.0568 8.72421 44.4491 7.80212 46.9365 7.80213ZM46.9331 12.0224C48.2904 12.0223 49.5993 12.5341 50.6054 13.4582C50.7415 13.5893 50.9559 13.5865 51.0885 13.4518L52.3758 12.1325C52.4436 12.0633 52.4812 11.9694 52.4802 11.8718C52.4793 11.7743 52.4398 11.6812 52.3706 11.6134C49.3068 8.72257 44.562 8.72257 41.4982 11.6134C41.429 11.6812 41.3895 11.7743 41.3886 11.8719C41.3877 11.9695 41.4254 12.0634 41.4934 12.1325L42.7803 13.4518C42.9129 13.5865 43.1273 13.5893 43.2634 13.4582C44.2688 12.5347 45.5767 12.023 46.9331 12.0224ZM49.4575 14.816C49.4594 14.9213 49.4224 15.0229 49.3551 15.0967L47.1784 17.5514C47.1146 17.6236 47.0276 17.6642 46.9369 17.6642C46.8461 17.6642 46.7591 17.6236 46.6953 17.5514L44.5183 15.0967C44.451 15.0228 44.414 14.9212 44.416 14.8159C44.418 14.7105 44.4588 14.6108 44.5288 14.5401C45.9189 13.2262 47.9548 13.2262 49.3449 14.5401C49.4149 14.6108 49.4556 14.7106 49.4575 14.816Z" fill="var(--fill-0, black)"/>
<g id="Battery">
<rect id="Border" opacity="0.35" x="63.0068" y="5.5" width="24" height="12" rx="3.8" stroke="var(--stroke-0, black)"/>
<path id="Cap" opacity="0.4" d="M88.5068 9.78113V13.8566C89.3116 13.5114 89.8349 12.7085 89.8349 11.8189C89.8349 10.9293 89.3116 10.1263 88.5068 9.78113" fill="var(--fill-0, black)"/>
<rect id="Capacity" x="64.5068" y="7" width="21" height="9" rx="2.5" fill="var(--fill-0, black)"/>
</g>
</g>
</svg>
