<svg preserveAspectRatio="none" width="100%" height="100%" overflow="visible" style="display: block;" viewBox="0 0 103.02 103.02" fill="none" xmlns="http://www.w3.org/2000/svg">
<g id="Functional Hero 100x100">
<g id="BG">
<path id="BG_1" d="M51.51 101.52C79.1298 101.52 101.52 79.1298 101.52 51.51C101.52 23.8902 79.1298 1.5 51.51 1.5C23.8902 1.5 1.5 23.8902 1.5 51.51C1.5 79.1298 23.8902 101.52 51.51 101.52Z" fill="var(--fill-0, #00609A)" stroke="var(--stroke-0, #00619B)" stroke-width="3" stroke-miterlimit="10"/>
<path id="BG_2" d="M51.94 97.79C77.5384 97.79 98.29 77.0384 98.29 51.44C98.29 25.8416 77.5384 5.09 51.94 5.09C26.3416 5.09 5.59 25.8416 5.59 51.44C5.59 77.0384 26.3416 97.79 51.94 97.79Z" stroke="var(--stroke-0, white)" stroke-width="3" stroke-miterlimit="10"/>
</g>
<g id="Stars">
<path id="Vector" d="M65.22 75.9501L66.6501 78.9901L69.85 79.4801L67.54 81.8401L68.09 85.1801L65.22 83.6101L62.36 85.1801L62.91 81.8401L60.59 79.4801L63.79 78.9901L65.22 75.9501Z" fill="var(--fill-0, white)" stroke="var(--stroke-0, #00609A)" stroke-width="0.5" stroke-miterlimit="10"/>
<path id="Vector_2" d="M55.35 75.5101L56.8 78.7101L60.03 79.2201L57.69 81.7001L58.2401 85.2201L55.35 83.5601L52.4601 85.2201L53.01 81.7001L50.67 79.2201L53.9001 78.7101L55.35 75.5101Z" fill="var(--fill-0, white)" stroke="var(--stroke-0, #00609A)" stroke-width="0.5" stroke-miterlimit="10"/>
<path id="Vector_3" opacity="0.69" d="M74.86 76.1901L76.12 78.9501L78.9601 79.3901L76.91 81.5401L77.39 84.5701L74.86 83.1401L72.32 84.5701L72.81 81.5401L70.76 79.3901L73.59 78.9501L74.86 76.1901Z" fill="var(--fill-0, white)" stroke="var(--stroke-0, #00609A)" stroke-width="0.5" stroke-miterlimit="10"/>
<path id="Vector_4" d="M33.54 75.0601L35.09 78.6801L38.54 79.2701L36.04 82.0901L36.63 86.0701L33.54 84.1901L30.45 86.0701L31.04 82.0901L28.54 79.2701L32 78.6801L33.54 75.0601Z" fill="var(--fill-0, white)" stroke="var(--stroke-0, #00609A)" stroke-width="0.5" stroke-miterlimit="10"/>
<path id="Vector_5" d="M44.63 75.5001L46.12 78.8401L49.4301 79.3701L47.03 81.9701L47.6 85.6301L44.63 83.9001L41.67 85.6301L42.23 81.9701L39.83 79.3701L43.1501 78.8401L44.63 75.5001Z" fill="var(--fill-0, white)" stroke="var(--stroke-0, #00609A)" stroke-width="0.5" stroke-miterlimit="10"/>
</g>
<path id="Arrow" d="M70.12 28.15C70.35 27.93 70.27 27.5399 70.2 27.0899C70.08 26.3899 70.0301 25.67 69.9301 24.96C69.8301 24.28 69.79 23.9399 69.76 23.5299C69.73 23.1499 69.7101 22.65 69.6801 22.2C69.6601 21.88 69.65 21.6399 69.62 21.2799C69.55 20.5099 69.48 20.2799 69.3 20.1199C69.14 19.9699 68.95 19.92 68.82 19.89C68.82 19.89 68.57 19.8399 68.29 19.8699C67.68 19.9299 67.05 20.2699 66.75 20.4399C65.79 20.9699 65.0201 21.41 64.4901 21.71C64.1401 21.9 63.7801 22.1 63.4301 22.3C62.8701 22.61 62.29 22.9099 61.75 23.2599C61.25 23.5699 61.2601 24.0399 61.7401 24.3799C61.8701 24.4699 62.01 24.56 62.16 24.64C62.58 24.88 63 25.11 63.41 25.36C63.75 25.56 63.77 25.6599 63.6 25.9999C63.45 26.2799 63.3 26.5699 63.14 26.8399C61.6 29.4599 59.71 31.8 57.59 33.95C54.13 37.46 50.23 40.35 45.81 42.49C45.73 42.53 45.63 42.5499 45.54 42.5699C46.25 42.9599 46.76 43.53 47.1 44.27C47.19 44.22 47.28 44.1599 47.38 44.1199C53.27 41.8399 58.58 38.6299 63.0201 33.9999C64.7501 32.1999 66.33 30.28 67.56 28.08C67.59 28.03 67.66 27.9099 67.8 27.8499C68 27.7599 68.18 27.8499 68.89 28.1199C69.3 28.2799 69.44 28.3299 69.64 28.3099C69.74 28.3099 69.97 28.29 70.12 28.15Z" fill="var(--fill-0, white)" stroke="var(--stroke-0, #00609A)" stroke-width="0.75" stroke-miterlimit="10"/>
<g id="Human">
<g id="Group">
<path id="Vector_6" d="M38.06 27.22C37.8 27.23 37.5501 27.24 37.3001 27.25C36.8901 27.27 36.48 27.29 36.06 27.32C36 27.32 35.9301 27.37 35.8901 27.42C35.1201 28.61 34.3501 29.81 33.5801 31.01C33.3201 31.41 33 31.63 32.62 31.55C32.22 31.47 31.95 31.14 31.84 30.61C31.73 30.12 31.82 29.6601 32.06 29.2701C32.87 27.9801 33.6901 26.69 34.5101 25.41C34.6601 25.17 34.8301 24.9301 35.0101 24.7401C35.2701 24.4601 35.6 24.43 35.91 24.41C36.44 24.38 36.97 24.34 37.5 24.31C38.03 24.28 38.5501 24.25 39.0801 24.23C39.4601 24.21 39.8301 24.2 40.2101 24.2C40.6101 24.2 40.9701 24.38 41.3301 24.62C42.1201 25.14 42.7601 25.89 43.3201 26.81C43.8201 27.63 44.34 28.42 44.85 29.23C44.96 29.4 45.04 29.38 45.13 29.19C45.78 27.91 46.44 26.64 47.1 25.36C47.34 24.89 47.69 24.6801 48.1 24.7401C48.48 24.7901 48.7601 25.07 48.8901 25.57C49.0001 25.98 48.97 26.4001 48.78 26.7701C47.87 28.6201 46.9501 30.47 46.0401 32.32C45.8901 32.63 45.7 32.88 45.44 33.01C44.98 33.23 44.5901 33.08 44.2601 32.64C43.6601 31.82 43.06 31 42.47 30.17C42.31 29.94 42.25 29.9601 42.13 30.2401C41.56 31.5301 40.9901 32.82 40.4301 34.11C40.4301 34.12 40.4201 34.12 40.4201 34.13C40.2501 34.5 40.2501 34.51 40.4901 34.78C41.3501 35.76 42.2201 36.74 43.0801 37.73C43.5201 38.23 43.74 38.8701 43.59 39.6801C43.54 39.9501 43.4401 40.22 43.3201 40.45C42.2701 42.41 41.2201 44.36 40.1701 46.31C40.0001 46.62 39.8401 46.93 39.6701 47.22C39.2401 47.94 38.5101 47.99 38.0801 47.33C37.7701 46.86 37.7601 46.28 37.9601 45.72C38.1301 45.24 38.3501 44.79 38.5701 44.34C39.2701 42.9 39.9801 41.47 40.6801 40.03C40.8001 39.79 40.8001 39.73 40.6401 39.57C39.7401 38.61 38.84 37.65 37.94 36.7C37.78 36.53 37.69 36.55 37.6 36.81C37.25 37.77 36.8901 38.73 36.5401 39.69C36.4101 40.04 36.28 40.3901 36.16 40.7401C36.03 41.1001 35.86 41.4001 35.62 41.6501C34.54 42.8001 33.45 43.95 32.37 45.1C31.93 45.57 31.5001 46.0401 31.0501 46.4901C30.6301 46.9201 30.0801 46.91 29.7101 46.48C29.2401 45.93 29.24 44.92 29.72 44.33C30.2 43.74 30.7 43.16 31.19 42.58C32.05 41.57 32.92 40.56 33.78 39.55C34.06 39.22 34.1801 38.77 34.2901 38.32C34.6401 36.95 34.9501 35.57 35.3601 34.23C35.6701 33.19 36.1001 32.2101 36.4901 31.2101C36.9701 29.9801 37.4701 28.76 37.9501 27.54C37.9901 27.44 38.02 27.34 38.06 27.22Z" fill="var(--fill-0, white)" stroke="var(--stroke-0, #00609A)" stroke-width="0.75" stroke-miterlimit="10"/>
<path id="Vector_7" d="M42.41 25.19C41.03 25.05 39.88 23.35 39.98 21.42C40.09 19.3 41.53 17.83 43.01 17.99C44.45 18.14 45.6 19.8 45.43 21.85C45.23 24.14 43.59 25.37 42.41 25.19Z" fill="var(--fill-0, white)" stroke="var(--stroke-0, #00609A)" stroke-width="0.75" stroke-miterlimit="10"/>
</g>
<path id="Vector_8" d="M30.35 46.78C30.15 47.13 30.09 47.56 30.09 48C30.09 48.56 30.12 49.1201 30.13 49.6801C30.13 49.8501 30.13 50.04 30.1 50.2C30.02 50.6 29.78 50.7601 29.57 50.5201C29.48 50.4201 29.4 50.28 29.33 50.13C28.97 49.28 28.68 48.36 28.42 47.41C28.34 47.12 28.32 46.88 28.37 46.67C28.42 46.46 28.52 46.3201 28.64 46.1501C28.76 45.9901 28.9601 45.75 29.2701 45.56C29.6301 45.98 29.99 46.38 30.35 46.78Z" fill="var(--fill-0, white)" stroke="var(--stroke-0, #00609A)" stroke-width="0.75" stroke-miterlimit="10"/>
<path id="Vector_9" d="M39.01 47.83C38.88 48.25 38.8801 48.72 38.9601 49.19C39.0601 49.78 39.19 50.36 39.29 50.95C39.32 51.13 39.35 51.33 39.35 51.51C39.35 51.95 39.13 52.1801 38.88 51.9901C38.77 51.9101 38.6701 51.78 38.5801 51.64C38.0701 50.85 37.6301 49.95 37.2101 49.03C37.0801 48.75 37.02 48.5001 37.03 48.2701C37.04 48.0301 37.1201 47.86 37.2101 47.66C37.3001 47.46 37.46 47.16 37.73 46.87C38.15 47.18 38.58 47.51 39.01 47.83Z" fill="var(--fill-0, white)" stroke="var(--stroke-0, #00609A)" stroke-width="0.75" stroke-miterlimit="10"/>
</g>
<g id="Rectangles">
<path id="Vector_10" d="M74.7798 71.64H70.5498C68.8998 71.64 67.5498 70.29 67.5498 68.64V32.73C67.5498 31.08 68.8998 29.73 70.5498 29.73H74.7798C76.4298 29.73 77.7798 31.08 77.7798 32.73V68.64C77.7798 70.29 76.4298 71.64 74.7798 71.64Z" fill="var(--fill-0, white)"/>
<path id="Vector_11" d="M58.9798 71.64H55.1598C53.5098 71.64 52.1598 70.29 52.1598 68.64V45.27C52.1598 43.62 53.5098 42.27 55.1598 42.27H58.9798C60.6298 42.27 61.9798 43.62 61.9798 45.27V68.64C61.9798 70.29 60.6298 71.64 58.9798 71.64Z" fill="var(--fill-0, white)"/>
<path id="Vector_12" d="M44.5298 71.44H41.7598C40.1098 71.44 38.7598 70.09 38.7598 68.44V54.51C38.7598 52.86 40.1098 51.51 41.7598 51.51H44.5298C46.1798 51.51 47.5298 52.86 47.5298 54.51V68.44C47.5298 70.09 46.1798 71.44 44.5298 71.44Z" fill="var(--fill-0, white)"/>
<path id="Vector_13" d="M32.2198 71.17H29.5498C28.1698 71.17 27.0498 70.05 27.0498 68.67V60.12C27.0498 58.74 28.1698 57.62 29.5498 57.62H32.2198C33.5998 57.62 34.7198 58.74 34.7198 60.12V68.67C34.7198 70.05 33.5898 71.17 32.2198 71.17Z" fill="var(--fill-0, white)"/>
</g>
</g>
</svg>
