<svg preserveAspectRatio="none" width="100%" height="100%" overflow="visible" style="display: block;" viewBox="0 0 52 53" fill="none" xmlns="http://www.w3.org/2000/svg">
<g id="GREEN">
<path id="Vector" opacity="0.89" d="M25.9821 53C40.2973 53 51.902 41.1355 51.902 26.5C51.902 11.8645 40.2973 0 25.9821 0C11.667 0 0.0622789 11.8645 0.0622789 26.5C0.0622789 41.1355 11.667 53 25.9821 53Z" fill="var(--fill-0, #438E46)"/>
<path id="Vector_2" d="M26 50.6801C40.3594 50.6801 52 39.3427 52 25.3574C52 11.3721 40.3594 0.0346925 26 0.0346925C11.6406 0.0346925 0 11.3721 0 25.3574C0 39.3427 11.6406 50.6801 26 50.6801Z" fill="var(--fill-0, #6CB148)"/>
<path id="Vector_3" d="M16.496 24.19C17.8886 24.19 19.0176 22.1701 19.0176 19.6784C19.0176 17.1867 17.8886 15.1668 16.496 15.1668C15.1034 15.1668 13.9744 17.1867 13.9744 19.6784C13.9744 22.1701 15.1034 24.19 16.496 24.19Z" fill="var(--fill-0, #231F20)"/>
<path id="Vector_4" d="M35.9241 24.19C37.3168 24.19 38.4457 22.1701 38.4457 19.6784C38.4457 17.1867 37.3168 15.1668 35.9241 15.1668C34.5315 15.1668 33.4026 17.1867 33.4026 19.6784C33.4026 22.1701 34.5315 24.19 35.9241 24.19Z" fill="var(--fill-0, #231F20)"/>
<path id="Vector_5" d="M16.326 31.5884C18.8629 34.1721 22.1227 36.5301 25.8752 36.54C29.6294 36.5367 32.8978 34.1854 35.4415 31.605C35.8234 31.2131 36.4611 31.1982 36.86 31.5735C37.2572 31.9471 37.2692 32.5615 36.8856 32.9467C35.4603 34.388 33.8832 35.7347 32.0453 36.7742C28.066 39.0657 23.6793 39.0673 19.6983 36.7841C17.857 35.748 16.2748 34.403 14.8461 32.9616C14.454 32.5664 14.4642 31.9354 14.8717 31.5535C15.2809 31.1683 15.9355 31.1832 16.326 31.5867V31.5884Z" fill="var(--fill-0, #231F20)"/>
</g>
</svg>
